<?xml version="1.0" encoding="UTF-8"?>
<!-- Generator: Adobe Illustrator 25.2.0, SVG Export Plug-In . SVG Version: 6.00 Build 0)  -->
<svg version="1.1" id="Layer_1" xmlns="http://www.w3.org/2000/svg" xmlns:xlink="http://www.w3.org/1999/xlink" x="0px" y="0px" viewBox="0 0 793.09 62.12" style="enable-background:new 0 0 793.09 62.12;" xml:space="preserve">
<style type="text/css">
	.st0{fill:url(#SVGID_1_);}
	.st1{fill:#670829;}
	.st2{fill:#283544;}
</style>
<g>
	<linearGradient id="SVGID_1_" gradientUnits="userSpaceOnUse" x1="76.4213" y1="9.2682" x2="76.4213" y2="54.7294">
		<stop offset="0" style="stop-color:#F6861F"/>
		<stop offset="1" style="stop-color:#DF1F26"/>
	</linearGradient>
	<path class="st0" d="M34.53,41.07l7.27,12.67H26.58l-6.15-10.93h-3.6l-2.17,10.93H0l8.69-43.47h19.5   c11.49,0,18.07,5.28,18.07,14.28C46.27,32.31,41.92,38.27,34.53,41.07z M25.96,21.57h-4.91L19,31.75h6.02c4.04,0,6.4-2.11,6.4-5.78   C31.43,22.87,29.31,21.57,25.96,21.57z M54.96,10.26h14.66l-8.69,43.47H46.27L54.96,10.26z M66.45,50.32l5.65-10.81   c4.84,2.79,9.81,4.04,14.66,4.04c3.79,0,5.78-0.99,5.78-2.55c0-4.6-20.68-1.93-20.68-15.4c0-9.87,8.26-16.33,21.99-16.33   c6.46,0,12.23,1.3,16.27,3.73l-5.28,10.68c-3.48-2.17-7.7-3.23-11.92-3.23c-4.29,0-6.4,1.43-6.4,2.92   c0,4.78,20.74,1.74,20.74,15.15c0,9.69-8.45,16.21-21.99,16.21C77.51,54.73,70.61,52.87,66.45,50.32z M129.68,21.32l-0.99,5.09   h18.38l-2.11,10.56h-18.45l-1.12,5.71h21.8l-2.24,11.05h-36.15l8.69-43.47h35.34l-2.24,11.05H129.68z"/>
	<g>
		<g>
			<path class="st1" d="M230.51,10.92l-8.57,42.83h-6.55l-17.56-29.98l-6,29.98h-7.89l8.57-42.83h6.55l17.62,29.98l5.94-29.98     H230.51z"/>
			<path class="st1" d="M268.46,39.68c0-1.47,0.18-3,0.49-4.59l4.83-24.17h7.96l-4.84,24.05c-0.24,1.41-0.43,2.69-0.43,3.79     c0,5.81,3.43,8.63,9.49,8.63c6.79,0,10.89-3.73,12.67-12.48l4.77-23.99h7.83l-4.9,24.54c-2.51,12.61-9.67,18.91-21.17,18.91     C274.64,54.37,268.46,48.74,268.46,39.68z"/>
			<path class="st1" d="M361.05,17.65h-14.2l1.35-6.73h36.35l-1.41,6.73h-14.2l-7.16,36.1h-7.95L361.05,17.65z"/>
			<path class="st1" d="M442.99,40.17l7.65,13.58h-8.44l-7.04-12.54h-0.06h-10.59l-2.45,12.54h-8.02l8.57-42.83h16.64     c10.34,0,16.28,4.77,16.28,12.91C455.53,32.15,450.88,37.97,442.99,40.17z M447.52,24.57c0-4.65-3.3-6.91-9.12-6.91h-9.12     l-3.43,17.01h9.48C443.05,34.66,447.52,31.17,447.52,24.57z"/>
			<path class="st1" d="M499.42,10.92h7.96l-8.57,42.83h-7.95L499.42,10.92z"/>
			<path class="st1" d="M558.35,17.65h-14.2l1.35-6.73h36.35l-1.41,6.73h-14.2l-7.16,36.1h-7.95L558.35,17.65z"/>
			<path class="st1" d="M619.91,10.92h7.96l-8.57,42.83h-7.95L619.91,10.92z"/>
			<path class="st1" d="M663.85,36.07c0-14.5,10.46-25.76,26.25-25.76c12.91,0,20.5,7.46,20.5,18.3c0,14.5-10.46,25.76-26.25,25.76     C671.44,54.37,663.85,46.9,663.85,36.07z M702.58,29.09c0-7.04-4.65-11.81-13.22-11.81c-10.77,0-17.5,8.38-17.5,18.3     c0,7.04,4.59,11.81,13.16,11.81C695.79,47.39,702.58,39.01,702.58,29.09z"/>
			<path class="st1" d="M793.09,10.92l-8.57,42.83h-6.55l-17.56-29.98l-6,29.98h-7.89l8.57-42.83h6.55l17.62,29.98l5.94-29.98     H793.09z"/>
		</g>
	</g>
	<g>
		<path class="st2" d="M163.42,62.12c-0.09,0-0.18-0.01-0.26-0.03c-0.72-0.14-1.18-0.84-1.04-1.56l11.9-59.48    c0.14-0.72,0.87-1.18,1.55-1.04c0.72,0.14,1.18,0.84,1.04,1.56l-11.9,59.48C164.59,61.69,164.04,62.12,163.42,62.12z"/>
	</g>
</g>
</svg>